<svg xmlns="http://www.w3.org/2000/svg" xmlns:xlink="http://www.w3.org/1999/xlink" width="500" zoomAndPan="magnify" viewBox="0 0 375 374.999991" height="500" preserveAspectRatio="xMidYMid meet" version="1.0"><defs><g/><clipPath id="2f175929b2"><path d="M 74 0.878906 L 79 0.878906 L 79 25 L 74 25 Z M 74 0.878906 " clip-rule="nonzero"/></clipPath><clipPath id="5e30964259"><path d="M 99 6 L 118 6 L 118 30.640625 L 99 30.640625 Z M 99 6 " clip-rule="nonzero"/></clipPath><clipPath id="ef6c5542d7"><rect x="0" width="191" y="0" height="31"/></clipPath></defs><path fill="#008545" d="M 154.921875 156.835938 C 158.597656 155.574219 161.929688 153.734375 164.804688 151.320312 C 166.527344 151.894531 169.632812 152.699219 173.191406 152.699219 C 173.308594 152.699219 173.308594 152.699219 173.421875 152.699219 C 180.316406 152.699219 183.648438 150.863281 183.996094 150.632812 C 184.683594 150.171875 185.144531 149.367188 185.144531 148.5625 C 185.144531 147.644531 184.570312 146.953125 183.765625 146.609375 C 181.582031 145.691406 177.675781 143.507812 176.640625 141.667969 C 174.226562 137.644531 175.03125 134.429688 175.03125 134.429688 C 175.03125 134.3125 175.03125 134.3125 175.03125 134.199219 C 176.179688 128.796875 175.835938 123.050781 173.996094 117.652344 C 168.710938 101.449219 151.128906 92.601562 134.925781 98 C 127.113281 100.644531 120.90625 106.046875 117.230469 113.398438 C 113.554688 120.867188 112.976562 129.257812 115.734375 137.1875 C 120.101562 150.171875 132.285156 158.445312 145.269531 158.445312 C 148.488281 158.445312 151.703125 157.984375 154.921875 156.835938 Z M 119.988281 135.691406 C 117.691406 128.914062 118.148438 121.789062 121.253906 115.46875 C 124.355469 109.261719 129.640625 104.550781 136.304688 102.367188 C 139.0625 101.449219 141.820312 100.988281 144.578125 100.988281 C 155.613281 100.988281 166.070312 108 169.859375 119.144531 C 171.355469 123.625 171.699219 128.566406 170.78125 133.164062 C 170.550781 134.085938 169.515625 138.679688 172.847656 144.082031 C 173.769531 145.574219 175.375 146.839844 176.984375 147.988281 C 175.835938 148.105469 174.6875 148.105469 173.308594 148.105469 C 168.941406 148.105469 165.265625 146.609375 165.265625 146.609375 C 164.460938 146.265625 163.539062 146.378906 162.851562 147.070312 C 160.207031 149.484375 156.992188 151.320312 153.542969 152.46875 C 139.753906 157.066406 124.699219 149.597656 119.988281 135.691406 Z M 119.988281 135.691406 " fill-opacity="1" fill-rule="nonzero"/><path fill="#008545" d="M 151.933594 138.222656 L 151.933594 133.625 L 156.53125 133.625 C 159.058594 133.625 161.128906 131.554688 161.128906 129.027344 L 161.128906 124.429688 C 161.128906 121.902344 159.058594 119.835938 156.53125 119.835938 L 151.933594 119.835938 L 151.933594 115.238281 C 151.933594 112.710938 149.867188 110.640625 147.335938 110.640625 L 142.742188 110.640625 C 140.210938 110.640625 138.144531 112.710938 138.144531 115.238281 L 138.144531 119.835938 L 133.546875 119.835938 C 131.019531 119.835938 128.953125 121.902344 128.953125 124.429688 L 128.953125 129.027344 C 128.953125 131.554688 131.019531 133.625 133.546875 133.625 L 138.144531 133.625 L 138.144531 138.222656 C 138.144531 140.75 140.210938 142.816406 142.742188 142.816406 L 147.335938 142.816406 C 149.867188 142.816406 151.933594 140.863281 151.933594 138.222656 Z M 151.933594 138.222656 " fill-opacity="1" fill-rule="nonzero"/><path fill="#008545" d="M 259.722656 152.816406 C 258 147.988281 254.78125 144.3125 250.875 142.585938 C 249.496094 135.347656 243.867188 128.566406 235.589844 124.316406 C 227.085938 119.949219 217.78125 119.144531 210.769531 122.132812 C 207.09375 118.226562 200.773438 116.386719 193.648438 117.304688 C 188.015625 118.109375 183.191406 120.523438 180.203125 123.855469 C 180.316406 124.660156 180.316406 125.464844 180.433594 126.269531 C 180.433594 126.5 180.433594 126.84375 180.433594 127.074219 C 180.433594 127.648438 180.433594 128.222656 180.433594 128.796875 C 180.433594 129.371094 180.433594 129.945312 180.316406 130.523438 C 180.203125 132.128906 179.972656 133.625 179.628906 135.117188 C 179.511719 135.464844 179.628906 135.347656 179.511719 135.578125 C 179.511719 136.039062 179.398438 137.417969 180.546875 139.253906 C 181.121094 139.945312 183.652344 141.554688 185.71875 142.472656 C 188.132812 143.507812 189.625 145.804688 189.855469 148.449219 C 189.96875 151.089844 188.707031 153.503906 186.410156 154.769531 C 185.605469 155.226562 181.46875 157.410156 173.539062 157.410156 C 173.421875 157.410156 173.308594 157.410156 173.308594 157.410156 C 170.433594 157.410156 167.90625 156.953125 165.839844 156.492188 C 162.964844 158.5625 159.863281 160.167969 156.414062 161.320312 C 152.96875 162.46875 149.519531 163.042969 146.074219 163.042969 C 145.84375 163.042969 145.5 163.042969 145.269531 163.042969 C 143.890625 163.042969 142.394531 162.925781 141.015625 162.8125 C 138.832031 167.523438 138.71875 173.15625 140.558594 178.210938 C 142.394531 183.039062 146.1875 186.714844 150.785156 188.4375 C 152.164062 192.574219 156.300781 195.90625 162.160156 197.171875 C 167.449219 198.320312 173.996094 197.746094 178.25 194.300781 C 181.8125 199.125 185.71875 201.769531 190.199219 202.6875 C 195.371094 203.605469 200.542969 201.769531 205.484375 198.894531 C 206.058594 201.078125 207.4375 202.917969 209.390625 204.179688 C 211.574219 205.5625 214.101562 206.136719 216.628906 206.136719 C 217.894531 206.136719 219.042969 206.019531 220.191406 205.675781 L 233.523438 222.109375 C 233.984375 222.566406 234.558594 222.914062 235.132812 222.914062 C 235.132812 222.914062 235.246094 222.914062 235.246094 222.914062 C 235.820312 222.914062 236.394531 222.683594 236.855469 222.222656 L 242.945312 216.132812 C 243.636719 215.441406 243.867188 214.292969 243.289062 213.375 L 237.890625 204.179688 C 238.464844 204.066406 239.039062 203.953125 239.613281 203.722656 C 239.84375 203.605469 240.074219 203.492188 240.304688 203.378906 C 240.417969 203.261719 240.648438 203.261719 240.761719 203.148438 C 241.222656 202.917969 241.566406 202.6875 242.027344 202.457031 C 244.441406 200.847656 245.933594 198.664062 246.394531 196.367188 C 250.644531 194.527344 254.324219 190.964844 256.507812 186.484375 C 258.804688 181.886719 259.265625 176.601562 258 172.003906 C 261.445312 166.144531 262.023438 159.136719 259.722656 152.816406 Z M 253.289062 173.960938 C 248.921875 167.867188 239.613281 164.996094 224.675781 164.996094 C 223.410156 164.996094 222.375 163.960938 222.375 162.699219 C 222.375 161.433594 223.410156 160.398438 224.675781 160.398438 C 239.269531 160.398438 248.921875 163.042969 254.667969 168.558594 C 254.4375 169.132812 254.09375 169.707031 253.746094 170.28125 C 253.402344 170.855469 253.289062 171.546875 253.519531 172.234375 C 253.746094 173.039062 253.976562 173.84375 254.09375 174.648438 C 253.863281 174.535156 253.519531 174.304688 253.289062 173.960938 Z M 189.28125 138.796875 C 188.015625 138.679688 187.097656 137.644531 187.097656 136.382812 C 187.210938 135.117188 188.246094 134.199219 189.511719 134.199219 C 194.109375 134.542969 196.636719 132.128906 199.851562 129.027344 C 201.691406 127.304688 203.644531 125.464844 206.058594 124.085938 C 206.863281 124.660156 207.550781 125.351562 208.128906 126.15625 C 208.703125 127.074219 209.964844 127.417969 211 126.960938 C 199.625 132.359375 200.199219 140.175781 200.65625 146.496094 C 200.886719 149.710938 201.117188 152.46875 199.394531 154.308594 C 198.933594 154.882812 198.359375 155.113281 197.667969 155.113281 C 197.09375 155.113281 196.636719 154.882812 196.175781 154.539062 C 195.257812 153.734375 195.140625 152.242188 195.945312 151.320312 C 196.289062 150.863281 196.175781 148.449219 196.0625 146.839844 C 195.832031 144.195312 195.601562 140.863281 196.40625 137.417969 C 194.683594 138.222656 192.730469 138.796875 190.316406 138.796875 C 190.085938 138.910156 189.625 138.910156 189.28125 138.796875 Z M 200.199219 196.367188 C 199.96875 196.480469 199.738281 196.597656 199.625 196.597656 C 199.738281 196.480469 199.96875 196.480469 200.199219 196.367188 Z M 198.703125 196.941406 C 198.472656 197.058594 198.246094 197.058594 198.128906 197.171875 C 198.246094 197.058594 198.472656 197.058594 198.703125 196.941406 Z M 197.324219 197.402344 C 197.09375 197.515625 196.867188 197.515625 196.75 197.632812 C 196.867188 197.515625 197.09375 197.515625 197.324219 197.402344 Z M 195.832031 197.863281 C 195.601562 197.863281 195.488281 197.976562 195.257812 197.976562 C 195.488281 197.863281 195.601562 197.863281 195.832031 197.863281 Z M 159.632812 168.097656 C 159.976562 166.835938 161.355469 166.261719 162.507812 166.605469 C 170.089844 169.019531 174.570312 172.925781 177.332031 177.292969 C 178.59375 172.351562 181.007812 168.097656 184.914062 166.261719 C 186.0625 165.683594 187.441406 166.144531 188.015625 167.292969 C 188.589844 168.441406 188.132812 169.824219 186.984375 170.398438 C 182.386719 172.582031 180.664062 180.96875 180.890625 188.554688 C 180.890625 189.011719 180.890625 189.359375 180.890625 189.816406 C 180.777344 189.703125 180.664062 189.472656 180.546875 189.359375 C 180.089844 188.667969 179.398438 188.324219 178.59375 188.324219 C 177.789062 188.324219 177.101562 188.667969 176.640625 189.359375 C 176.527344 189.585938 176.410156 189.703125 176.179688 189.933594 C 176.179688 189.585938 176.179688 189.128906 176.179688 188.78125 C 175.492188 180.050781 170.433594 174.074219 161.128906 171.085938 C 159.863281 170.625 159.171875 169.246094 159.632812 168.097656 Z M 194.335938 198.089844 C 194.109375 198.089844 193.992188 198.089844 193.761719 198.207031 C 193.992188 198.089844 194.222656 198.089844 194.335938 198.089844 Z M 192.957031 198.089844 C 192.84375 198.089844 192.613281 198.089844 192.5 198.089844 C 192.613281 198.089844 192.730469 198.089844 192.957031 198.089844 Z M 201.003906 195.90625 C 201.230469 195.792969 201.460938 195.679688 201.578125 195.5625 C 201.347656 195.679688 201.230469 195.792969 201.003906 195.90625 Z M 205.484375 198.664062 Z M 215.710938 191.65625 C 212.492188 194.070312 209.046875 196.710938 205.597656 198.664062 L 202.957031 194.875 C 202.839844 194.988281 202.726562 194.988281 202.496094 195.101562 C 205.945312 193.148438 209.507812 190.507812 212.953125 187.863281 C 220.882812 181.886719 228.351562 176.257812 235.015625 179.820312 C 236.167969 180.394531 236.511719 181.773438 235.9375 182.921875 C 235.363281 184.070312 233.984375 184.417969 232.832031 183.84375 C 228.695312 181.773438 222.375 186.601562 215.710938 191.65625 Z M 215.710938 191.65625 " fill-opacity="1" fill-rule="nonzero"/><g transform="matrix(1, 0, 0, 1, 98, 230)"><g clip-path="url(#ef6c5542d7)"><g fill="#008545" fill-opacity="1"><g transform="translate(0.489845, 24.027503)"><g><path d="M 9.640625 0.4375 C 7.992188 0.4375 6.539062 0.140625 5.28125 -0.453125 C 4.03125 -1.054688 3.046875 -1.914062 2.328125 -3.03125 C 1.617188 -4.144531 1.265625 -5.472656 1.265625 -7.015625 L 6 -7.015625 C 6 -5.960938 6.363281 -5.179688 7.09375 -4.671875 C 7.820312 -4.171875 8.660156 -3.921875 9.609375 -3.921875 C 10.210938 -3.921875 10.773438 -4.019531 11.296875 -4.21875 C 11.828125 -4.414062 12.257812 -4.703125 12.59375 -5.078125 C 12.9375 -5.460938 13.109375 -5.925781 13.109375 -6.46875 C 13.109375 -7.019531 12.910156 -7.453125 12.515625 -7.765625 C 12.128906 -8.085938 11.601562 -8.351562 10.9375 -8.5625 C 10.28125 -8.769531 9.5625 -8.96875 8.78125 -9.15625 C 7.976562 -9.34375 7.15625 -9.566406 6.3125 -9.828125 C 5.46875 -10.097656 4.679688 -10.453125 3.953125 -10.890625 C 3.234375 -11.335938 2.65625 -11.9375 2.21875 -12.6875 C 1.789062 -13.445312 1.578125 -14.398438 1.578125 -15.546875 C 1.578125 -17.628906 2.28125 -19.234375 3.6875 -20.359375 C 5.101562 -21.484375 7.019531 -22.046875 9.4375 -22.046875 C 11.90625 -22.046875 13.816406 -21.421875 15.171875 -20.171875 C 16.535156 -18.929688 17.21875 -17.238281 17.21875 -15.09375 L 12.578125 -15.09375 C 12.578125 -16.019531 12.25 -16.703125 11.59375 -17.140625 C 10.9375 -17.585938 10.175781 -17.8125 9.3125 -17.8125 C 8.539062 -17.8125 7.835938 -17.644531 7.203125 -17.3125 C 6.566406 -16.988281 6.25 -16.472656 6.25 -15.765625 C 6.25 -15.253906 6.4375 -14.847656 6.8125 -14.546875 C 7.195312 -14.242188 7.703125 -13.992188 8.328125 -13.796875 C 8.960938 -13.609375 9.660156 -13.421875 10.421875 -13.234375 C 11.242188 -13.023438 12.085938 -12.78125 12.953125 -12.5 C 13.816406 -12.226562 14.617188 -11.851562 15.359375 -11.375 C 16.109375 -10.90625 16.710938 -10.273438 17.171875 -9.484375 C 17.640625 -8.703125 17.875 -7.71875 17.875 -6.53125 C 17.875 -4.957031 17.492188 -3.65625 16.734375 -2.625 C 15.984375 -1.59375 14.988281 -0.820312 13.75 -0.3125 C 12.519531 0.1875 11.148438 0.4375 9.640625 0.4375 Z M 9.640625 0.4375 "/></g></g></g><g fill="#008545" fill-opacity="1"><g transform="translate(19.620096, 24.027503)"><g><path d="M 18.375 -8.40625 C 18.375 -7.976562 18.34375 -7.535156 18.28125 -7.078125 L 5.65625 -7.078125 C 5.84375 -5.941406 6.296875 -5.070312 7.015625 -4.46875 C 7.734375 -3.863281 8.640625 -3.5625 9.734375 -3.5625 C 10.523438 -3.5625 11.226562 -3.726562 11.84375 -4.0625 C 12.457031 -4.40625 12.929688 -4.875 13.265625 -5.46875 L 18.03125 -5.46875 C 17.40625 -3.65625 16.347656 -2.210938 14.859375 -1.140625 C 13.378906 -0.0664062 11.671875 0.46875 9.734375 0.46875 C 8.085938 0.46875 6.609375 0.0820312 5.296875 -0.6875 C 3.992188 -1.46875 2.960938 -2.519531 2.203125 -3.84375 C 1.453125 -5.175781 1.078125 -6.675781 1.078125 -8.34375 C 1.078125 -10.019531 1.453125 -11.519531 2.203125 -12.84375 C 2.960938 -14.175781 3.992188 -15.226562 5.296875 -16 C 6.609375 -16.769531 8.085938 -17.15625 9.734375 -17.15625 C 11.453125 -17.15625 12.957031 -16.757812 14.25 -15.96875 C 15.550781 -15.175781 16.5625 -14.117188 17.28125 -12.796875 C 18.007812 -11.484375 18.375 -10.019531 18.375 -8.40625 Z M 9.734375 -13.328125 C 8.722656 -13.328125 7.875 -13.046875 7.1875 -12.484375 C 6.5 -11.929688 6.03125 -11.160156 5.78125 -10.171875 L 13.859375 -10.171875 C 13.191406 -12.273438 11.816406 -13.328125 9.734375 -13.328125 Z M 9.734375 -13.328125 "/></g></g></g><g fill="#008545" fill-opacity="1"><g transform="translate(39.028481, 24.027503)"><g><path d="M 11.6875 -17.09375 C 13.582031 -17.09375 15.082031 -16.457031 16.1875 -15.1875 C 17.289062 -13.925781 17.84375 -12.234375 17.84375 -10.109375 L 17.84375 0 L 13.328125 0 L 13.328125 -9.40625 C 13.328125 -11.894531 12.359375 -13.140625 10.421875 -13.140625 C 9.265625 -13.140625 8.347656 -12.75 7.671875 -11.96875 C 7.003906 -11.1875 6.671875 -10.125 6.671875 -8.78125 L 6.671875 0 L 2.171875 0 L 2.171875 -16.703125 L 5.25 -16.703125 L 6.15625 -14.625 C 6.769531 -15.382812 7.5625 -15.984375 8.53125 -16.421875 C 9.5 -16.867188 10.550781 -17.09375 11.6875 -17.09375 Z M 11.6875 -17.09375 "/></g></g></g><g fill="#008545" fill-opacity="1"><g transform="translate(58.838643, 24.027503)"><g><path d="M 10.328125 -4.015625 L 12.375 -4.015625 L 12.375 0 L 9.1875 0 C 7.351562 0 5.90625 -0.53125 4.84375 -1.59375 C 3.78125 -2.65625 3.25 -4.113281 3.25 -5.96875 L 3.25 -13.078125 L 0.21875 -13.078125 L 0.21875 -14.03125 L 6.828125 -21.0625 L 7.671875 -21.0625 L 7.671875 -16.703125 L 12.28125 -16.703125 L 12.28125 -13.078125 L 7.765625 -13.078125 L 7.765625 -6.5625 C 7.765625 -5.75 7.984375 -5.117188 8.421875 -4.671875 C 8.867188 -4.234375 9.503906 -4.015625 10.328125 -4.015625 Z M 10.328125 -4.015625 "/></g></g></g><g clip-path="url(#2f175929b2)"><g fill="#008545" fill-opacity="1"><g transform="translate(72.127826, 24.027503)"><g><path d="M 2.171875 -18.921875 L 2.171875 -23.125 L 6.671875 -23.125 L 6.671875 -18.921875 Z M 2.171875 0 L 2.171875 -16.703125 L 6.671875 -16.703125 L 6.671875 0 Z M 2.171875 0 "/></g></g></g></g><g fill="#008545" fill-opacity="1"><g transform="translate(80.966675, 24.027503)"><g><path d="M 8.09375 0.46875 C 6.695312 0.46875 5.472656 0.222656 4.421875 -0.265625 C 3.367188 -0.765625 2.546875 -1.460938 1.953125 -2.359375 C 1.367188 -3.253906 1.078125 -4.300781 1.078125 -5.5 L 5.46875 -5.5 C 5.488281 -4.757812 5.753906 -4.203125 6.265625 -3.828125 C 6.785156 -3.460938 7.445312 -3.28125 8.25 -3.28125 C 8.894531 -3.28125 9.453125 -3.414062 9.921875 -3.6875 C 10.398438 -3.96875 10.640625 -4.390625 10.640625 -4.953125 C 10.640625 -5.523438 10.320312 -5.929688 9.6875 -6.171875 C 9.0625 -6.410156 8.304688 -6.597656 7.421875 -6.734375 C 6.765625 -6.835938 6.078125 -6.984375 5.359375 -7.171875 C 4.648438 -7.359375 3.992188 -7.625 3.390625 -7.96875 C 2.796875 -8.320312 2.304688 -8.804688 1.921875 -9.421875 C 1.546875 -10.046875 1.359375 -10.851562 1.359375 -11.84375 C 1.359375 -12.894531 1.640625 -13.820312 2.203125 -14.625 C 2.773438 -15.425781 3.5625 -16.046875 4.5625 -16.484375 C 5.5625 -16.929688 6.738281 -17.15625 8.09375 -17.15625 C 9.4375 -17.15625 10.609375 -16.921875 11.609375 -16.453125 C 12.609375 -15.992188 13.382812 -15.347656 13.9375 -14.515625 C 14.5 -13.679688 14.78125 -12.707031 14.78125 -11.59375 L 10.484375 -11.59375 C 10.484375 -12.25 10.257812 -12.742188 9.8125 -13.078125 C 9.375 -13.410156 8.765625 -13.578125 7.984375 -13.578125 C 7.273438 -13.578125 6.722656 -13.425781 6.328125 -13.125 C 5.941406 -12.820312 5.75 -12.4375 5.75 -11.96875 C 5.75 -11.40625 6.054688 -11.019531 6.671875 -10.8125 C 7.296875 -10.613281 8.039062 -10.441406 8.90625 -10.296875 C 9.582031 -10.171875 10.28125 -10.019531 11 -9.84375 C 11.726562 -9.664062 12.398438 -9.398438 13.015625 -9.046875 C 13.640625 -8.703125 14.140625 -8.21875 14.515625 -7.59375 C 14.898438 -6.976562 15.09375 -6.164062 15.09375 -5.15625 C 15.09375 -4.03125 14.800781 -3.039062 14.21875 -2.1875 C 13.644531 -1.34375 12.832031 -0.6875 11.78125 -0.21875 C 10.726562 0.238281 9.5 0.46875 8.09375 0.46875 Z M 8.09375 0.46875 "/></g></g></g><g clip-path="url(#5e30964259)"><g fill="#008545" fill-opacity="1"><g transform="translate(97.19184, 24.027503)"><g><path d="M 11.28125 -17.15625 C 12.957031 -17.15625 14.453125 -16.773438 15.765625 -16.015625 C 17.085938 -15.253906 18.128906 -14.207031 18.890625 -12.875 C 19.648438 -11.550781 20.03125 -10.039062 20.03125 -8.34375 C 20.03125 -6.65625 19.648438 -5.144531 18.890625 -3.8125 C 18.128906 -2.488281 17.085938 -1.4375 15.765625 -0.65625 C 14.453125 0.113281 12.957031 0.5 11.28125 0.5 C 10.414062 0.5 9.59375 0.375 8.8125 0.125 C 8.03125 -0.125 7.316406 -0.460938 6.671875 -0.890625 L 6.671875 6.03125 L 2.171875 6.03125 L 2.171875 -16.703125 L 5.15625 -16.703125 L 5.9375 -15.1875 C 6.632812 -15.800781 7.4375 -16.28125 8.34375 -16.625 C 9.25 -16.976562 10.226562 -17.15625 11.28125 -17.15625 Z M 10.921875 -3.765625 C 11.785156 -3.765625 12.5625 -3.96875 13.25 -4.375 C 13.9375 -4.78125 14.476562 -5.328125 14.875 -6.015625 C 15.269531 -6.703125 15.46875 -7.476562 15.46875 -8.34375 C 15.46875 -9.207031 15.269531 -9.984375 14.875 -10.671875 C 14.476562 -11.367188 13.9375 -11.914062 13.25 -12.3125 C 12.5625 -12.71875 11.785156 -12.921875 10.921875 -12.921875 C 10.023438 -12.921875 9.238281 -12.71875 8.5625 -12.3125 C 7.882812 -11.914062 7.347656 -11.367188 6.953125 -10.671875 C 6.566406 -9.984375 6.375 -9.207031 6.375 -8.34375 C 6.375 -7.476562 6.566406 -6.703125 6.953125 -6.015625 C 7.347656 -5.328125 7.882812 -4.78125 8.5625 -4.375 C 9.238281 -3.96875 10.023438 -3.765625 10.921875 -3.765625 Z M 10.921875 -3.765625 "/></g></g></g></g><g fill="#008545" fill-opacity="1"><g transform="translate(118.269106, 24.027503)"><g><path d="M 11.71875 -17.09375 C 13.613281 -17.09375 15.109375 -16.460938 16.203125 -15.203125 C 17.296875 -13.953125 17.84375 -12.265625 17.84375 -10.140625 L 17.84375 0 L 13.328125 0 L 13.328125 -9.40625 C 13.328125 -10.632812 13.097656 -11.5625 12.640625 -12.1875 C 12.191406 -12.820312 11.453125 -13.140625 10.421875 -13.140625 C 9.304688 -13.140625 8.398438 -12.753906 7.703125 -11.984375 C 7.015625 -11.210938 6.671875 -10.144531 6.671875 -8.78125 L 6.671875 0 L 2.171875 0 L 2.171875 -22.734375 L 6.671875 -22.734375 L 6.671875 -15.15625 C 7.316406 -15.75 8.070312 -16.21875 8.9375 -16.5625 C 9.800781 -16.914062 10.726562 -17.09375 11.71875 -17.09375 Z M 11.71875 -17.09375 "/></g></g></g><g fill="#008545" fill-opacity="1"><g transform="translate(138.079269, 24.027503)"><g><path d="M 18.375 -8.40625 C 18.375 -7.976562 18.34375 -7.535156 18.28125 -7.078125 L 5.65625 -7.078125 C 5.84375 -5.941406 6.296875 -5.070312 7.015625 -4.46875 C 7.734375 -3.863281 8.640625 -3.5625 9.734375 -3.5625 C 10.523438 -3.5625 11.226562 -3.726562 11.84375 -4.0625 C 12.457031 -4.40625 12.929688 -4.875 13.265625 -5.46875 L 18.03125 -5.46875 C 17.40625 -3.65625 16.347656 -2.210938 14.859375 -1.140625 C 13.378906 -0.0664062 11.671875 0.46875 9.734375 0.46875 C 8.085938 0.46875 6.609375 0.0820312 5.296875 -0.6875 C 3.992188 -1.46875 2.960938 -2.519531 2.203125 -3.84375 C 1.453125 -5.175781 1.078125 -6.675781 1.078125 -8.34375 C 1.078125 -10.019531 1.453125 -11.519531 2.203125 -12.84375 C 2.960938 -14.175781 3.992188 -15.226562 5.296875 -16 C 6.609375 -16.769531 8.085938 -17.15625 9.734375 -17.15625 C 11.453125 -17.15625 12.957031 -16.757812 14.25 -15.96875 C 15.550781 -15.175781 16.5625 -14.117188 17.28125 -12.796875 C 18.007812 -11.484375 18.375 -10.019531 18.375 -8.40625 Z M 9.734375 -13.328125 C 8.722656 -13.328125 7.875 -13.046875 7.1875 -12.484375 C 6.5 -11.929688 6.03125 -11.160156 5.78125 -10.171875 L 13.859375 -10.171875 C 13.191406 -12.273438 11.816406 -13.328125 9.734375 -13.328125 Z M 9.734375 -13.328125 "/></g></g></g><g fill="#008545" fill-opacity="1"><g transform="translate(157.487654, 24.027503)"><g><path d="M 10.703125 -16.796875 L 12.1875 -16.796875 L 12.1875 -12.515625 L 10.234375 -12.515625 C 8.953125 -12.515625 8.035156 -12.21875 7.484375 -11.625 C 6.941406 -11.03125 6.671875 -10.050781 6.671875 -8.6875 L 6.671875 0 L 2.171875 0 L 2.171875 -16.703125 L 5.078125 -16.703125 L 5.875 -14.65625 C 7.007812 -16.082031 8.617188 -16.796875 10.703125 -16.796875 Z M 10.703125 -16.796875 "/></g></g></g><g fill="#008545" fill-opacity="1"><g transform="translate(170.066027, 24.027503)"><g><path d="M 18.375 -8.40625 C 18.375 -7.976562 18.34375 -7.535156 18.28125 -7.078125 L 5.65625 -7.078125 C 5.84375 -5.941406 6.296875 -5.070312 7.015625 -4.46875 C 7.734375 -3.863281 8.640625 -3.5625 9.734375 -3.5625 C 10.523438 -3.5625 11.226562 -3.726562 11.84375 -4.0625 C 12.457031 -4.40625 12.929688 -4.875 13.265625 -5.46875 L 18.03125 -5.46875 C 17.40625 -3.65625 16.347656 -2.210938 14.859375 -1.140625 C 13.378906 -0.0664062 11.671875 0.46875 9.734375 0.46875 C 8.085938 0.46875 6.609375 0.0820312 5.296875 -0.6875 C 3.992188 -1.46875 2.960938 -2.519531 2.203125 -3.84375 C 1.453125 -5.175781 1.078125 -6.675781 1.078125 -8.34375 C 1.078125 -10.019531 1.453125 -11.519531 2.203125 -12.84375 C 2.960938 -14.175781 3.992188 -15.226562 5.296875 -16 C 6.609375 -16.769531 8.085938 -17.15625 9.734375 -17.15625 C 11.453125 -17.15625 12.957031 -16.757812 14.25 -15.96875 C 15.550781 -15.175781 16.5625 -14.117188 17.28125 -12.796875 C 18.007812 -11.484375 18.375 -10.019531 18.375 -8.40625 Z M 9.734375 -13.328125 C 8.722656 -13.328125 7.875 -13.046875 7.1875 -12.484375 C 6.5 -11.929688 6.03125 -11.160156 5.78125 -10.171875 L 13.859375 -10.171875 C 13.191406 -12.273438 11.816406 -13.328125 9.734375 -13.328125 Z M 9.734375 -13.328125 "/></g></g></g></g></g></svg>